<svg viewBox="12 183 30 18" fill="none" xmlns="http://www.w3.org/2000/svg">
    <!-- Ocean Background -->
    <rect x="0" y="0" width="100%" height="100%" fill="#F0F9FF"/>
    
    <!-- Jeju Island -->
    <path d="M21.5,189.2c0,0-2.2,3.3-6.1,3.9c-3.9,0.6-2.5,5.8-0.3,7.2c2.2,1.4,3,3.7,6.1,1.6c1.6-1.1,4.8,0.1,8.8-0.3c1.6-0.1,11.5-4.8,10.8-8.9c-0.8-4.1-2.7-6.6-7-5.3c-4.3,1.3-7.5,1.1-8.7,1.1C23.8,188.6,22.8,188.3,21.5,189.2z" 
          fill="#FFFFFF" stroke="#CBD5E1" stroke-width="0.2" vector-effect="non-scaling-stroke">
        <dropShadow dx="0.5" dy="0.5" stdDeviation="0.5" flood-color="#000" flood-opacity="0.1"/>
    </path>
    
    <!-- Hallasan Approximation (Center) -->
    <circle cx="27" cy="193" r="1.5" fill="#E2E8F0" opacity="0.5"/>

    <!-- Udo Island (Approximate - Manually added based on location relative to main path) -->
    <circle cx="41.5" cy="188.5" r="0.8" fill="#FFFFFF" stroke="#CBD5E1" stroke-width="0.2"/>

</svg>